Coordinates
version=1
nRows=13
nColumns=36
inDegrees=yes

Units are S.I. units (second, meters, Newtons, ...)
If the header above contains a line with 'inDegrees', this indicates whether rotational values are in degrees (yes) or radians (no).

endheader
time	pelvis_tilt	pelvis_list	pelvis_rotation	pelvis_tx	pelvis_ty	pelvis_tz	hip_flexion_r	hip_adduction_r	hip_rotation_r	knee_angle_r	knee_angle_r_beta	ankle_angle_r	subtalar_angle_r	mtp_angle_r	hip_flexion_l	hip_adduction_l	hip_rotation_l	knee_angle_l	knee_angle_l_beta	ankle_angle_l	subtalar_angle_l	mtp_angle_l	lumbar_extension	lumbar_bending	lumbar_rotation	arm_flex_r	arm_add_r	arm_rot_r	elbow_flex_r	pro_sup_r	arm_flex_l	arm_add_l	arm_rot_l	elbow_flex_l	pro_sup_l
      1.23333330	     -0.63931044	      0.87141268	     13.00205859	      0.18761337	      1.26262589	     -0.14338262	     22.65882634	     -4.47821683	     -1.18292326	     16.84142492	      0.29393832	    -26.44180546	     -3.05123282	     -7.49998074	     15.14177773	      0.65261424	     -7.59074754	     11.65769778	      0.20346521	    -29.12524443	     -5.20739219	     -7.49998074	    -12.08183400	     -3.45506618	     -2.62301398	     -1.15059912	    -13.19305450	     10.43149207	     26.53377869	     79.61532039	     -7.85870867	    -14.90863964	     38.89134054	     28.27275282	     69.65884182
      1.25000000	     -1.06394138	      1.33017407	     13.11889013	      0.19597749	      1.22635902	     -0.14558183	     23.66726097	     -5.07570887	     -2.05342291	     14.21988190	      0.24818376	    -27.88836650	     -1.17497381	     -7.49998165	     16.69004621	      1.07426501	     -8.49482670	     10.66754937	      0.18618386	    -30.64565923	     -4.36900636	     -7.49998165	    -12.20146723	     -4.04814446	     -3.19941878	     -6.10996781	    -15.53810346	     10.66802226	     29.80857012	     78.80348849	    -12.38691453	    -16.27037501	     40.41062253	     33.69754600	     69.16672870
      1.26666670	     -1.44237377	      1.00466200	     13.75812831	      0.21088546	      1.18934045	     -0.15179619	     25.11180706	     -4.93717082	     -2.61817213	     12.78801346	      0.22319294	    -30.47867844	     -1.75811306	     -7.49998280	     18.45489774	      0.94552334	     -9.28556351	      9.13105404	      0.15936696	    -34.21503664	     -5.36841205	     -7.49998280	    -12.83930848	     -3.79921902	     -2.62129700	    -12.43088680	    -18.30377117	     11.49021181	     34.84227861	     77.66056305	    -15.97807118	    -18.43688328	     42.20530457	     41.18672871	     68.74544405
      1.28333330	     -1.42670786	      1.05595040	     14.08789929	      0.23501265	      1.15942820	     -0.16574189	     26.08692480	     -5.55207039	     -4.95199323	     12.75743550	      0.22265925	    -31.96896374	     -1.67952617	     -7.49998621	     19.77686293	      1.38995208	     -9.53186988	      9.10094237	      0.15884141	    -34.27775993	     -4.93674676	     -7.49998621	    -13.28413374	     -3.67163877	     -1.58153350	    -20.55560059	    -20.60674656	     11.06101109	     41.07652886	     74.34388476	    -18.80219115	    -19.78890137	     44.86661881	     45.86337029	     67.56190960
      1.30000000	     -1.53438181	      1.23446786	     13.84632793	      0.25516694	      1.11919072	     -0.16831787	     27.42577385	     -5.90821429	     -5.75118857	     12.63380557	      0.22050150	    -34.59530588	     -2.04507539	     -7.49998708	     20.45726689	      1.80853081	     -9.40274342	      8.42319408	      0.14701247	    -34.61250365	     -4.31636566	     -7.49998708	    -13.33357050	     -3.69639594	     -1.42038456	    -28.07097681	    -23.18118725	     12.16786546	     48.53207660	     74.64182171	    -22.94529618	    -20.92599048	     44.36261174	     51.05294347	     67.58595429
      1.31666670	     -1.55371195	      1.53690832	     13.62740651	      0.27918921	      1.08226952	     -0.16845606	     28.00466101	     -5.74673342	     -6.65344641	     12.07209690	      0.21069784	    -37.98941488	     -3.26217520	     -7.49998772	     21.51849013	      1.63372132	     -9.51587415	      8.52246408	      0.14874506	    -35.86043006	     -4.80894687	     -7.49998772	    -13.37511715	     -3.90273422	     -1.65269484	    -34.57772002	    -24.42915178	     12.21633778	     54.17821341	     75.41527002	    -26.03411373	    -21.33802959	     42.48438472	     55.81297005	     67.99233190
      1.33333330	     -1.57316060	      1.52095781	     13.93269010	      0.31278581	      1.03980126	     -0.18211476	     27.21755842	     -5.74503577	     -7.29037694	     11.35251774	      0.19813881	    -38.24650020	     -2.84674291	     -7.49999115	     21.46095884	      1.63008016	     -9.39326160	      8.17252659	      0.14263750	    -38.27864496	     -5.67456122	     -7.49999115	    -11.92778078	     -3.49309658	     -2.29040307	    -40.43127280	    -25.10770259	     11.74939155	     56.44620567	     81.48272869	    -29.99739826	    -20.15968858	     38.09673547	     59.29308365	     73.57009463
      1.35000000	     -1.58854434	      1.08930398	     14.06208497	      0.32701138	      0.99879067	     -0.18259701	     27.43340463	     -5.13776580	     -6.13879390	     11.19761912	      0.19543532	    -39.58915433	     -2.40002030	     -7.49999196	     22.34956579	      0.71531217	     -8.30517480	      9.44017821	      0.16476219	    -36.97044683	     -4.59892690	     -7.49999196	    -11.60575077	     -2.59007445	     -1.98938725	    -44.28074731	    -24.54719505	     10.36316206	     57.80267948	     81.52388013	    -30.96055405	    -18.95790190	     35.31894568	     60.61976263	     74.02094370
      1.36666670	     -1.52887308	      0.33670967	     13.99865239	      0.35080700	      0.95296383	     -0.18304621	     27.30795062	     -3.88552516	     -4.44092664	     11.78444079	      0.20567729	    -36.66624654	     -1.56202289	     -7.49999468	     23.25786197	     -0.74990798	     -5.66956139	     11.61699314	      0.20275478	    -33.21946391	     -5.63034137	     -7.49999468	    -10.89891560	     -2.10109682	     -2.08871975	    -45.95825713	    -23.22961672	      9.10458775	     56.99097139	     85.45746739	    -30.50287519	    -16.37384577	     30.90940742	     57.15311205	     78.91160121
      1.38333330	     -0.27933716	      0.40120984	     13.89723646	      0.37630713	      0.91444031	     -0.19935680	     27.70698249	     -3.92951806	     -2.52882308	     19.03183537	      0.33216819	    -24.22439571	     -3.79049310	     -7.49999602	     24.17819721	     -0.70480635	     -2.92153900	     18.49702133	      0.32283392	    -22.78542630	    -10.54235805	     -7.49999602	    -11.13360126	     -1.80491017	     -1.20836983	    -46.16267994	    -21.66237319	      8.92810220	     54.53268950	     82.87427930	    -27.52144855	    -13.39695102	     29.59803059	     49.78952465	     76.88176238
      1.40000000	      0.15619408	      0.93663388	     13.16352251	      0.38657155	      0.87342550	     -0.19812116	     31.34799699	     -3.95282678	      1.12260072	     31.09554302	      0.54271961	     -8.42908886	     -8.96574388	     -7.49999831	     27.05995310	     -0.29382135	     -1.50121540	     29.30386101	      0.51144886	     -7.57780048	    -13.92520699	     -7.49999831	    -12.09983937	     -2.50223666	     -0.97606367	    -41.82429211	    -19.92384406	      9.78114653	     49.07424649	     85.28858505	    -23.46542008	    -10.14488619	     24.83855278	     42.73263503	     80.27847257
      1.41666670	      0.55645999	      1.71180159	     13.19765123	      0.39256828	      0.82873690	     -0.20022721	     38.47042038	     -3.93788369	      4.66626315	     48.05918057	      0.83879094	      6.15376402	    -12.61152539	     -7.49999910	     33.37855764	      0.56928811	     -1.37933046	     44.13730767	      0.77034134	      8.04622556	    -15.89143354	     -7.49999910	    -14.43474981	     -3.82689666	     -0.70544172	    -33.82077372	    -17.58000646	     13.05231407	     40.84346973	     82.44447464	    -18.42474382	     -8.08243612	     19.56940281	     37.58672770	     79.77748129
      1.43333330	      0.86007999	      1.69573829	     14.00124365	      0.40900429	      0.78788089	     -0.19742499	     45.20582330	     -2.96648778	      6.23517101	     63.28603376	      1.10454966	     17.81842307	    -12.78623891	     -7.49999934	     40.17976687	      1.02575986	     -0.36752268	     59.35969126	      1.03602206	     17.37040755	    -18.35240176	     -7.49999934	    -16.87868619	     -4.08874213	     -1.87741853	    -25.08880806	    -14.50304421	     15.97563596	     32.56172738	     81.11083944	    -14.35978912	     -6.50872556	     11.94950930	     34.50357508	     80.92676402
